#!OML:ASF X:\für Bonn\!DataBase\2005_08_12_Daniel\c3d\Daniel.ASF
:FULLY-SPECIFIED
:DEGREES
76
root 6.62129 16.7434 -0.381419 106.922 -97.9324 -131.245
lowerback 23.9453 -4.47932 -0.345921
upperback 6.04649 -7.12141 -7.13549
thorax -7.51285 -3.73397 -5.46966
lowerneck 4.05188 5.65181 -1.37573
upperneck 12.1074 7.43535 -2.80882
head 3.26072 3.36761 -0.565836
rclavicle -2.55687e-014 -3.4191e-014
rhumerus -33.1347 -2.90429 -84.874
rradius 29.8717
rwrist 30.5891
rhand -16.0569 11.9044
rfingers 7.12502
rthumb 10.1452 -17.831
lclavicle -2.55687e-014 -3.4191e-014
lhumerus -45.7242 21.8212 64.3131
lradius 35.0973
lwrist -10.6574
lhand -13.6585 -9.46366
lfingers 7.12502
lthumb 12.4584 20.145
rfemur -4.35217 6.02972 17.7887
rtibia 41.9051
rfoot -13.7275 -2.24746
rtoes -5.22698
lfemur -45.9407 11.862 -17.5648
ltibia 129.905
lfoot 38.3754 -19.4684
ltoes -15.2789
77
root 6.55027 16.7518 -0.376391 99.3161 -97.9094 -125.741
lowerback 25.984 -3.88426 -0.328516
upperback 6.77174 -6.51191 -7.48264
thorax -7.71717 -3.47534 -5.98476
lowerneck 4.22791 5.42254 -1.69656
upperneck 12.0704 7.08 -2.39408
head 3.17931 3.19449 -0.390783
rclavicle 4.2689e-014 4.53229e-014
rhumerus -31.9179 -1.74714 -85.3462
rradius 30.2825
rwrist 30.1176
rhand -16.4139 12.383
rfingers 7.12502
rthumb 9.80083 -17.3689
lclavicle 4.2689e-014 4.53229e-014
lhumerus -45.6691 20.8116 64.1911
lradius 35.7074
lwrist -9.62894
lhand -14.1067 -9.7018
lfingers 7.12502
lthumb 12.0263 19.9327
rfemur -1.26414 6.44692 17.8337
rtibia 40.9674
rfoot -13.6795 -1.97275
rtoes -5.52273
lfemur -48.9217 13.5639 -17.486
ltibia 131.538
lfoot 40.7615 -19.3515
ltoes -15.2144
78
root 6.47759 16.7533 -0.367822 91.2927 -98.0208 -119.894
lowerback 28.1144 -3.27292 -0.320877
upperback 7.48124 -5.90979 -7.81775
thorax -7.94221 -3.22638 -6.5141
lowerneck 4.41466 5.21635 -2.01923
upperneck 12.0672 6.75134 -1.94546
head 3.11031 3.03379 -0.203911
rclavicle 2.23633e-016 -4.77083e-015
rhumerus -30.7514 -0.493911 -85.6851
rradius 30.7002
rwrist 29.4835
rhand -16.8386 12.9648
rfingers 7.12502
rthumb 9.39106 -16.806
lclavicle 2.23633e-016 -4.77083e-015
lhumerus -45.6474 19.7657 64.0777
lradius 36.2978
lwrist -8.66413
lhand -14.6604 -9.86058
lfingers 7.12502
lthumb 11.4923 19.8044
rfemur 1.84267 6.7728 17.7702
rtibia 40.1277
rfoot -13.6374 -1.53847
rtoes -5.73566
lfemur -51.9323 15.2381 -17.569
ltibia 132.851
lfoot 43.0147 -19.1518
ltoes -15.3439
79
root 6.40305 16.7487 -0.355994 83.3547 -98.2987 -114.126
lowerback 30.4136 -2.65306 -0.374261
upperback 7.90574 -5.33464 -8.38143
thorax -8.05704 -2.94668 -6.75459
lowerneck 4.59255 5.03262 -2.37068
upperneck 12.1433 6.44921 -1.48296
head 3.07265 2.88167 -0.00596863
rclavicle 2.43387e-014 4.29375e-014
rhumerus -29.6804 1.07424 -85.9336
rradius 31.2227
rwrist 28.495
rhand -17.3092 13.4626
rfingers 7.12502
rthumb 8.93695 -16.3282
lclavicle 2.43387e-014 4.29375e-014
lhumerus -45.6626 18.8724 63.8824
lradius 36.7915
lwrist -8.03126
lhand -15.3608 -10.0885
lfingers 7.12502
lthumb 10.8167 19.613
rfemur 4.87938 6.96785 17.5306
rtibia 39.3387
rfoot -13.5693 -0.905124
rtoes -5.96403
lfemur -54.8997 16.7303 -17.9171
ltibia 133.695
lfoot 45.0581 -18.5751
ltoes -15.285
80
root 6.3281 16.7466 -0.341592 75.9178 -98.7667 -108.747
lowerback 32.5047 -2.02043 -0.407481
upperback 8.4734 -4.75844 -8.74645
thorax -8.24913 -2.70913 -7.27234
lowerneck 4.7409 4.86164 -2.6935
upperneck 12.3258 6.16221 -1.00434
head 3.08102 2.73461 0.195467
rclavicle 1.82571e-014 6.36111e-014
rhumerus -28.7911 2.74518 -86.0897
rradius 32.014
rwrist 27.1952
rhand -17.7311 13.7268
rfingers 7.12502
rthumb 8.52983 -16.0809
lclavicle 1.82571e-014 6.36111e-014
lhumerus -45.6408 18.0066 63.6512
lradius 37.1591
lwrist -7.62323
lhand -16.1794 -10.338
lfingers 7.12502
lthumb 10.0271 19.4031
rfemur 7.744 7.09727 17.0722
rtibia 38.5428
rfoot -13.4295 -0.0953941
rtoes -6.14539
lfemur -58.0751 17.9965 -18.5903
ltibia 134.178
lfoot 46.4296 -17.9102
ltoes -15.3528
81
root 6.25344 16.7576 -0.325607 69.1738 -99.3698 -103.933
lowerback 34.4903 -1.39484 -0.39103
upperback 8.97879 -4.19003 -9.12085
thorax -8.42518 -2.47775 -7.85515
lowerneck 4.88613 4.70149 -3.04405
upperneck 12.6002 5.88136 -0.483244
head 3.12298 2.58691 0.417639
rclavicle 1.38435e-014 -2.54444e-014
rhumerus -28.1085 4.29208 -86.1169
rradius 33.1195
rwrist 25.8924
rhand -17.9525 13.8293
rfingers 7.12502
rthumb 8.31615 -15.987
lclavicle 1.38435e-014 -2.54444e-014
lhumerus -45.5597 17.2144 63.3462
lradius 37.344
lwrist -7.47682
lhand -17.0274 -10.6207
lfingers 7.12502
lthumb 9.20894 19.1582
rfemur 10.4516 7.14867 16.4319
rtibia 37.7121
rfoot -13.2175 0.855259
rtoes -6.33916
lfemur -61.4045 19.0195 -19.4894
ltibia 134.289
lfoot 46.7793 -17.3456
ltoes -15.7801
